<?xml version="1.0" encoding="UTF-8"?>
<svg version="1.1" xmlns="http://www.w3.org/2000/svg" width="899" height="180">
<path d="M0 0 C-0.0031424 0.58953681 -0.00628481 1.17907362 -0.00952244 1.78647518 C-0.08303249 16.1602026 -0.10657895 30.53337794 -0.07515812 44.90725613 C-0.06115572 51.85862353 -0.06379304 58.80922698 -0.10620117 65.76049805 C-0.14709789 72.47180874 -0.14083142 79.18157675 -0.10607719 85.89299202 C-0.1004876 88.45057651 -0.11057983 91.0082459 -0.13676643 93.56570244 C-0.17081527 97.15522969 -0.14859743 100.74040678 -0.11352539 104.32983398 C-0.14803551 105.90832626 -0.14803551 105.90832626 -0.1832428 107.51870728 C0.01802961 117.08953186 2.22285094 117.22285094 10 125 C10.33 95.3 10.66 65.6 11 35 C15.64154028 38.97846309 20.04010549 42.91069276 24.30859375 47.24609375 C24.87900894 47.82029556 25.44942413 48.39449738 26.03712463 48.98609924 C28.44375215 51.40885446 30.84431429 53.83758538 33.24536133 56.26586914 C41.91900527 65.10480279 41.91900527 65.10480279 51.14086914 73.35961914 C51.75438232 73.90094482 52.36789551 74.44227051 53 75 C53.50305664 75.37854126 54.00611328 75.75708252 54.52441406 76.14709473 C57.11451092 78.31357761 58.74994726 79.97096319 59.56135559 83.31013489 C59.78933326 86.10464102 59.83083161 88.84476394 59.8046875 91.6484375 C59.82524704 93.16723007 59.82524704 93.16723007 59.84622192 94.71670532 C59.88347998 97.93659059 59.87980966 101.15493 59.875 104.375 C59.89312961 106.56382615 59.91393312 108.75263189 59.9375 110.94140625 C59.98931123 116.2944221 60.00756527 121.64675638 60 127 C63.43092668 124.76324036 65.89901298 122.5412352 68 119 C68.08929406 115.53164297 68.08929406 115.53164297 67.34765625 111.77734375 C65.46545578 100.26551 64.28258175 89.07605801 71.07537842 78.88696289 C77.39710147 70.60447661 84.95279491 63.33609537 92.5 56.1875 C93.05966084 55.65662151 93.61932167 55.12574303 94.19594193 54.57877731 C114.91428773 35 114.91428773 35 117 35 C117 81.53 117 128.06 117 176 C62.88 176 8.76 176 -47 176 C-47.928125 155.313125 -48.85625 134.62625 -49.8125 113.3125 C-50.22218018 106.88305908 -50.63186035 100.45361816 -51.05395508 93.8293457 C-51.24490771 88.55180436 -51.39330012 83.32602418 -51.39453125 78.05078125 C-51.39544399 77.36505862 -51.39635674 76.67933598 -51.39729714 75.97283387 C-51.31406153 54.16820272 -46.22013831 39.87818422 -30.79875183 24.23954773 C-6.08539697 0 -6.08539697 0 0 0 Z " fill="#5C263D" transform="translate(47,0)"/>
<path d="M0 0 C0 46.53 0 93.06 0 141 C-23.1 141 -46.2 141 -70 141 C-72.52376033 108.91219008 -72.52376033 108.91219008 -67.95507812 101.83007812 C-65.28996133 99.16496133 -62.55647431 96.85091453 -59.5625 94.5625 C-55.43360332 91.37637843 -51.79293274 88.44502954 -49 84 C-48.74066839 81.13149791 -48.71797023 78.96328795 -49.03515625 76.16015625 C-49.11635208 75.44206787 -49.19754791 74.72397949 -49.28120422 73.98413086 C-49.46447051 72.47256281 -49.65141868 70.96143728 -49.84176636 69.45074463 C-51.06812238 59.38064526 -51.18097222 50.77403111 -44.756464 42.3403244 C-38.59513963 34.7422994 -31.59186541 27.90608749 -24.5 21.1875 C-23.93947182 20.65575417 -23.37894363 20.12400833 -22.80142975 19.57614899 C-2.08653532 0 -2.08653532 0 0 0 Z " fill="#5C263E" transform="translate(164,35)"/>
<path d="M0 0 C0.78681152 0.00829834 1.57362305 0.01659668 2.38427734 0.02514648 C12.0868185 0.30512328 19.2624355 2.96212454 26.53125 9.4609375 C30.44118933 14.12704435 31.65157198 18.79563091 32.375 24.75 C32.53355469 25.98363281 32.69210938 27.21726562 32.85546875 28.48828125 C33.21721436 32.79092607 33.1875 37.11967505 33.1875 41.4375 C23.9475 41.4375 14.7075 41.4375 5.1875 41.4375 C4.8125 33.25 4.8125 33.25 4.70947266 30.69848633 C4.49202296 26.55956264 4.05259935 23.22077064 2.1875 19.4375 C0.8675 19.4375 -0.4525 19.4375 -1.8125 19.4375 C-1.8125 42.5375 -1.8125 65.6375 -1.8125 89.4375 C-0.1625 89.4375 1.4875 89.4375 3.1875 89.4375 C4.83042546 87.79457454 4.52857718 85.79159962 4.72265625 83.52734375 C4.80966797 82.53798828 4.89667969 81.54863281 4.98632812 80.52929688 C5.1168457 78.96791992 5.1168457 78.96791992 5.25 77.375 C5.34087891 76.33021484 5.43175781 75.28542969 5.52539062 74.20898438 C5.75010908 71.6188085 5.9706231 69.02834233 6.1875 66.4375 C4.2075 66.4375 2.2275 66.4375 0.1875 66.4375 C0.1875 61.1575 0.1875 55.8775 0.1875 50.4375 C11.0775 50.4375 21.9675 50.4375 33.1875 50.4375 C33.1875 68.9175 33.1875 87.3975 33.1875 106.4375 C26.9175 106.4375 20.6475 106.4375 14.1875 106.4375 C13.5275 104.7875 12.8675 103.1375 12.1875 101.4375 C11.07375 102.613125 11.07375 102.613125 9.9375 103.8125 C4.55574756 108.94962733 0.09568485 108.9373719 -7.19921875 108.80859375 C-14.6162337 108.04684627 -19.77542801 104.88873615 -24.8125 99.5 C-31.74250109 90.78056201 -30.96894954 79.50395852 -30.98046875 68.859375 C-30.98379715 67.77094299 -30.98712555 66.68251099 -30.99055481 65.56109619 C-30.99559382 63.26843688 -30.99796408 60.97577031 -30.99780273 58.68310547 C-30.99998473 55.21178847 -31.01816091 51.740792 -31.03710938 48.26953125 C-31.11609708 17.56582255 -31.11609708 17.56582255 -24.8125 9.4375 C-17.56213627 2.65438194 -9.84379033 -0.13462862 0 0 Z " fill="#A7A9AC" transform="translate(201.8125,67.5625)"/>
<path d="M0 0 C5.82658853 4.0240486 9.83891702 8.24689561 11.56030273 15.29370117 C12.04889694 18.30095644 12.11266363 21.12928251 12.09765625 24.17578125 C12.09515869 25.21903564 12.09266113 26.26229004 12.09008789 27.3371582 C12.08098389 28.649021 12.07187988 29.96088379 12.0625 31.3125 C12.041875 35.499375 12.02125 39.68625 12 44 C3.09 44 -5.82 44 -15 44 C-15.375 32.3125 -15.375 32.3125 -15.47802734 28.65356445 C-15.5136377 27.691521 -15.54924805 26.72947754 -15.5859375 25.73828125 C-15.6173584 24.75899658 -15.6487793 23.77971191 -15.68115234 22.77075195 C-16.01429569 19.87577199 -16.79800587 17.64227833 -18 15 C-19.65 15 -21.3 15 -23 15 C-23 38.1 -23 61.2 -23 85 C-21.35 85 -19.7 85 -18 85 C-15.85879408 79.69050564 -15.57953477 74.76376175 -15.375 69.125 C-15.25125 66.11375 -15.1275 63.1025 -15 60 C-6.09 60 2.82 60 12 60 C12.061875 63.444375 12.12375 66.88875 12.1875 70.4375 C12.22846802 72.03742798 12.22846802 72.03742798 12.27026367 73.66967773 C12.3455187 82.41625385 10.91189739 89.87283531 4.8125 96.4296875 C-4.87615494 104.82373769 -15.4873686 104.6372475 -27.65869141 104.17919922 C-32.33941455 103.82094575 -36.06133847 102.49578552 -40 100 C-40.66128906 99.5875 -41.32257813 99.175 -42.00390625 98.75 C-48.10884757 94.26369657 -50.38867816 87.8939332 -51.53491211 80.59277344 C-52.20328332 74.99212761 -52.16231342 69.39129026 -52.16796875 63.7578125 C-52.17129715 62.59426239 -52.17462555 61.43071228 -52.17805481 60.23190308 C-52.18309975 57.77944329 -52.18546389 55.32697669 -52.18530273 52.87451172 C-52.18748881 49.14408959 -52.20566974 45.41396365 -52.22460938 41.68359375 C-52.22754397 39.29166767 -52.22952832 36.8997402 -52.23046875 34.5078125 C-52.23765427 33.40333771 -52.24483978 32.29886292 -52.25224304 31.16091919 C-52.22113609 20.49871876 -51.33961547 11.19833428 -44 3 C-32.63019893 -6.4556155 -12.73148595 -7.25992761 0 0 Z " fill="#A7A9AC" transform="translate(295,72)"/>
<path d="M0 0 C1.10223427 0.93517609 2.20308032 1.8719885 3.30335999 2.8094635 C3.91654618 3.33097016 4.52973238 3.85247683 5.16149998 4.38978672 C8.0069035 6.88187618 10.65604787 9.55196662 13.30859375 12.24609375 C14.16421654 13.10739647 14.16421654 13.10739647 15.03712463 13.98609924 C17.44375215 16.40885446 19.84431429 18.83758538 22.24536133 21.26586914 C30.91900527 30.10480279 30.91900527 30.10480279 40.14086914 38.35961914 C40.75438232 38.90094482 41.36789551 39.44227051 42 40 C42.50110794 40.37795212 43.00221588 40.75590424 43.51850891 41.14530945 C47.04038472 44.09644196 48.39877557 46.30062985 48.85571289 50.9128418 C48.92876092 52.84064451 48.96571944 54.77004504 48.97265625 56.69921875 C48.99025497 57.73005081 49.0078537 58.76088287 49.02598572 59.82295227 C49.05192164 62.00057181 49.06187411 64.1784329 49.05688477 66.35620117 C49.06245844 69.66284601 49.15840595 72.95875456 49.25976562 76.26367188 C49.482865 92.99644257 49.482865 92.99644257 45.51782227 97.31420898 C43.53540702 98.98532924 41.52673542 100.62586299 39.49145508 102.23217773 C34.28633987 108.01467564 35.60542037 116.31619174 35.8125 123.6875 C35.81947236 125.37173149 35.82146352 127.05599131 35.81835938 128.74023438 C35.81232056 132.83253974 35.9081259 136.90412428 36 141 C28.74 141 21.48 141 14 141 C14.07863281 138.54046875 14.15726563 136.0809375 14.23828125 133.546875 C14.27020078 131.12379654 14.27956057 128.70158391 14.28686523 126.27832031 C14.30374134 124.61385388 14.34351666 122.9494369 14.40795898 121.28613281 C14.49737976 118.86959083 14.50003497 116.46481008 14.48828125 114.046875 C14.55611565 112.95859406 14.55611565 112.95859406 14.62532043 111.84832764 C14.55254721 109.0968416 14.24520158 107.484461 13 105 C11.45711698 103.70354819 9.90786816 102.41263178 8.30649376 101.18916321 C3.57697578 97.52576684 -0.10761664 94.47097284 -1.15620422 88.3526001 C-1.66574958 82.72758289 -1.46518535 77.12072331 -1.26953125 71.484375 C-1.24524308 69.41650204 -1.2267577 67.34855356 -1.21379089 65.28057861 C-1.16447319 59.87315336 -1.03708102 54.47036721 -0.89263916 49.0647583 C-0.75894176 43.53469597 -0.70013 38.00387358 -0.63476562 32.47265625 C-0.49591261 21.64641417 -0.27445318 10.8235948 0 0 Z " fill="#5C253D" transform="translate(58,35)"/>
<path d="M0 0 C0 26.73 0 53.46 0 81 C-15.51 81 -31.02 81 -47 81 C-49.82777818 46.8095911 -49.82777818 46.8095911 -42.3828125 37.95703125 C-37.20916295 32.27491685 -31.11897843 27.61158917 -25 23 C-19.1766518 18.1930486 -13.84867947 12.94721031 -8.5625 7.5625 C-7.14941047 6.12406358 -5.73417027 4.68773558 -4.31640625 3.25390625 C-3.70224854 2.62814697 -3.08809082 2.0023877 -2.45532227 1.35766602 C-1 0 -1 0 0 0 Z " fill="#A6A8AB" transform="translate(141,95)"/>
<path d="M0 0 C7.86126927 6.7382308 7.86126927 6.7382308 10.46484375 9.40234375 C11.03283691 9.97863525 11.60083008 10.55492676 12.18603516 11.14868164 C12.76401855 11.7389917 13.34200195 12.32930176 13.9375 12.9375 C19.36106905 18.43150907 19.36106905 18.43150907 25.125 23.5625 C29.33665097 27.11154209 32.95525652 31.19088797 36.61376953 35.29516602 C37.09442871 35.82940186 37.57508789 36.3636377 38.0703125 36.9140625 C38.49070801 37.3879541 38.91110352 37.8618457 39.34423828 38.35009766 C41.130564 40.22847549 41.130564 40.22847549 44.14648438 42.17016602 C46.95148008 44.49198617 46.99349403 44.96301391 47.68115234 48.87231445 C47.67966567 50.36963906 47.64702811 51.86720267 47.5859375 53.36328125 C47.57989502 54.06594116 47.57385254 54.76860107 47.56762695 55.49255371 C47.536399 58.09980617 47.45262862 60.70621637 47.375 63.3125 C47.25125 69.149375 47.1275 74.98625 47 81 C31.49 81 15.98 81 0 81 C0 54.27 0 27.54 0 0 Z " fill="#A6A8AB" transform="translate(25,95)"/>
<path d="M0 0 C5.61 0 11.22 0 17 0 C17.41572266 2.13082031 17.41572266 2.13082031 17.83984375 4.3046875 C18.20557723 6.16148827 18.57147095 8.01825748 18.9375 9.875 C19.11990234 10.81214844 19.30230469 11.74929687 19.49023438 12.71484375 C19.66748047 13.61074219 19.84472656 14.50664063 20.02734375 15.4296875 C20.27085571 16.67081299 20.27085571 16.67081299 20.51928711 17.93701172 C20.92668942 20.04718366 20.92668942 20.04718366 22 22 C22.11593506 21.40461426 22.23187012 20.80922852 22.35131836 20.19580078 C22.87703798 17.50493604 23.40721295 14.8149682 23.9375 12.125 C24.11990234 11.18785156 24.30230469 10.25070313 24.49023438 9.28515625 C24.66748047 8.38925781 24.84472656 7.49335937 25.02734375 6.5703125 C25.27085571 5.32918701 25.27085571 5.32918701 25.51928711 4.06298828 C26 2 26 2 27 0 C32.28 0 37.56 0 43 0 C43 15.84 43 31.68 43 48 C39.7 48 36.4 48 33 48 C32.505 35.625 32.505 35.625 32 23 C30.35 31.25 28.7 39.5 27 48 C23.7 48 20.4 48 17 48 C16.53844354 46.20916094 16.08096796 44.4172701 15.625 42.625 C15.36976563 41.62726563 15.11453125 40.62953125 14.8515625 39.6015625 C13.785651 35.09344137 12.90849248 30.54246242 12 26 C11.67 33.26 11.34 40.52 11 48 C7.37 48 3.74 48 0 48 C0 32.16 0 16.32 0 0 Z " fill="#5C253D" transform="translate(687,73)"/>
<path d="M0 0 C5.61 0 11.22 0 17 0 C19.475 11.385 19.475 11.385 22 23 C23.65 15.41 25.3 7.82 27 0 C32.28 0 37.56 0 43 0 C43 15.84 43 31.68 43 48 C39.7 48 36.4 48 33 48 C32.505 35.625 32.505 35.625 32 23 C30.35 31.25 28.7 39.5 27 48 C23.7 48 20.4 48 17 48 C15.35 40.74 13.7 33.48 12 26 C11.67 33.26 11.34 40.52 11 48 C7.37 48 3.74 48 0 48 C0 32.16 0 16.32 0 0 Z " fill="#5C253D" transform="translate(365,73)"/>
<path d="M0 0 C6.09404462 4.45905704 9.1669762 9.51092825 10.5625 16.875 C11.42107947 25.73302721 10.9585446 33.97564601 6.5625 41.875 C3.17490098 45.95868101 -1.18175958 48.5243818 -6.46875 49.09375 C-11.91275329 49.31747616 -16.65522582 48.58133243 -21.4375 45.875 C-27.45461369 40.02051101 -29.42451896 32.2570122 -29.625 24.125 C-29.4779641 15.11570959 -27.86022393 8.48388984 -21.4375 1.875 C-15.4426812 -2.69248099 -6.91744562 -2.2638913 0 0 Z M-13.75 12.625 C-16.49455931 16.28441242 -16.59726769 19.30173715 -16.625 23.75 C-16.63917969 24.77867188 -16.65335938 25.80734375 -16.66796875 26.8671875 C-16.42863068 29.9907522 -15.88895143 32.10711589 -14.4375 34.875 C-11.62217943 37.16492684 -11.62217943 37.16492684 -8.4375 36.8125 C-5.33196963 36.15312384 -5.33196963 36.15312384 -3.7734375 33.75390625 C-2.15315064 30.26223544 -2.03767927 27.71393886 -2.0625 23.875 C-2.05476562 22.67875 -2.04703125 21.4825 -2.0390625 20.25 C-2.46633095 16.63078485 -3.20897989 14.73274932 -5.4375 11.875 C-9.13477944 10.53768616 -10.56023227 10.21112172 -13.75 12.625 Z " fill="#5C253D" transform="translate(598.4375,73.125)"/>
<path d="M0 0 C5.17053955 3.81635062 9.15788808 7.97364841 10.375 14.515625 C11.37090379 24.163443 11.45357763 33.26091743 6.625 41.9375 C3.23740098 46.02118101 -1.11925958 48.5868818 -6.40625 49.15625 C-11.85025329 49.37997616 -16.59272582 48.64383243 -21.375 45.9375 C-27.55553071 39.92401066 -29.33131572 31.96208302 -29.5625 23.625 C-29.40074687 14.86092147 -27.60306879 8.34609252 -21.375 1.9375 C-15.39738235 -2.61687535 -6.92239356 -2.17927205 0 0 Z M-13.5625 12.75 C-16.49666404 16.29123246 -16.55835618 19.35847155 -16.625 23.8125 C-16.65078125 24.84117188 -16.6765625 25.86984375 -16.703125 26.9296875 C-16.22646422 31.29907798 -14.4378387 33.8746613 -11.375 36.9375 C-8.37206929 37.00698565 -8.37206929 37.00698565 -5.375 35.9375 C-2.17708289 31.9118867 -1.91541909 28.4898859 -1.875 23.4375 C-1.8440625 22.1484375 -1.813125 20.859375 -1.78125 19.53125 C-2.5160276 15.08391191 -3.79973128 13.60867778 -7.375 10.9375 C-11.33512388 10.51215476 -11.33512388 10.51215476 -13.5625 12.75 Z " fill="#5C253D" transform="translate(517.375,73.0625)"/>
<path d="M0 0 C10.23 0 20.46 0 31 0 C31 3.63 31 7.26 31 11 C24.73 11 18.46 11 12 11 C12 12.98 12 14.96 12 17 C17.94 17 23.88 17 30 17 C30 20.63 30 24.26 30 28 C24.06 28 18.12 28 12 28 C12 30.64 12 33.28 12 36 C18.6 36 25.2 36 32 36 C32 39.96 32 43.92 32 48 C21.44 48 10.88 48 0 48 C0 32.16 0 16.32 0 0 Z " fill="#5C253D" transform="translate(415,73)"/>
<path d="M0 0 C3.5803168 1.73265866 5.20080819 3.88504111 6.63671875 7.4453125 C7.44983006 9.98202504 7.69921875 11.67262266 7.69921875 14.3828125 C1.75921875 14.8778125 1.75921875 14.8778125 -4.30078125 15.3828125 C-5.29078125 13.7328125 -6.28078125 12.0828125 -7.30078125 10.3828125 C-8.95078125 10.7128125 -10.60078125 11.0428125 -12.30078125 11.3828125 C-12.30078125 12.0428125 -12.30078125 12.7028125 -12.30078125 13.3828125 C-11.27597656 13.74632813 -10.25117188 14.10984375 -9.1953125 14.484375 C-7.83428266 14.99124129 -6.47362483 15.49910727 -5.11328125 16.0078125 C-4.43974609 16.24371094 -3.76621094 16.47960937 -3.07226562 16.72265625 C2.61017395 18.88475521 5.92421432 21.83280365 8.69921875 27.3828125 C9.46619404 34.14728309 8.82711597 39.82551398 4.69921875 45.3828125 C-0.69622477 49.56428123 -6.67813382 49.99809224 -13.30078125 49.3828125 C-18.4989198 47.76372016 -21.39482584 46.01081556 -24.30078125 41.3828125 C-25.80391041 37.70014605 -26.30078125 35.40078879 -26.30078125 31.3828125 C-22.34078125 31.0528125 -18.38078125 30.7228125 -14.30078125 30.3828125 C-12.81578125 33.8478125 -12.81578125 33.8478125 -11.30078125 37.3828125 C-9.32078125 37.3828125 -7.34078125 37.3828125 -5.30078125 37.3828125 C-4.97078125 35.4028125 -4.64078125 33.4228125 -4.30078125 31.3828125 C-4.94144531 31.21265625 -5.58210938 31.0425 -6.2421875 30.8671875 C-19.20751761 27.23457638 -19.20751761 27.23457638 -22.9609375 22.12109375 C-25.29102603 17.35901777 -25.05675305 12.55561954 -24.30078125 7.3828125 C-19.81025796 -1.93680527 -8.9782795 -2.40843491 0 0 Z " fill="#5C253D" transform="translate(476.30078125,72.6171875)"/>
<path d="M0 0 C1.93166016 0.01740234 1.93166016 0.01740234 3.90234375 0.03515625 C5.19269531 0.04417969 6.48304688 0.05320312 7.8125 0.0625 C8.81152344 0.07410156 9.81054688 0.08570312 10.83984375 0.09765625 C12.83556203 6.77230027 14.82917255 13.44757113 16.82128906 20.12329102 C17.49983479 22.39622403 18.17887057 24.66901081 18.85839844 26.94165039 C19.83265702 30.20030393 20.80517641 33.45947205 21.77734375 36.71875 C22.08357666 37.74165634 22.38980957 38.76456268 22.70532227 39.81846619 C22.98561279 40.759366 23.26590332 41.70026581 23.5546875 42.66967773 C23.803396 43.50240707 24.05210449 44.33513641 24.30834961 45.19309998 C24.83984375 47.09765625 24.83984375 47.09765625 24.83984375 48.09765625 C20.21984375 48.09765625 15.59984375 48.09765625 10.83984375 48.09765625 C10.50984375 45.45765625 10.17984375 42.81765625 9.83984375 40.09765625 C3.89984375 40.59265625 3.89984375 40.59265625 -2.16015625 41.09765625 C-2.82015625 43.40765625 -3.48015625 45.71765625 -4.16015625 48.09765625 C-8.45015625 48.09765625 -12.74015625 48.09765625 -17.16015625 48.09765625 C-15.85030301 41.97002643 -14.34209501 35.95734705 -12.59375 29.94140625 C-12.35479507 29.11306274 -12.11584015 28.28471924 -11.86964417 27.43127441 C-11.36931574 25.69987568 -10.86758704 23.96888101 -10.36450195 22.23828125 C-9.5919806 19.57811221 -8.8260278 16.91610868 -8.06054688 14.25390625 C-7.57200567 12.56629299 -7.08308723 10.87878887 -6.59375 9.19140625 C-6.36457382 8.39359741 -6.13539764 7.59578857 -5.89927673 6.77380371 C-3.95655962 0.12226698 -3.95655962 0.12226698 0 0 Z M2.83984375 16.09765625 C1.35484375 22.53265625 1.35484375 22.53265625 -0.16015625 29.09765625 C2.14984375 29.09765625 4.45984375 29.09765625 6.83984375 29.09765625 C5.84984375 24.80765625 4.85984375 20.51765625 3.83984375 16.09765625 C3.50984375 16.09765625 3.17984375 16.09765625 2.83984375 16.09765625 Z " fill="#5C253D" transform="translate(770.16015625,72.90234375)"/>
<path d="M0 0 C4.62 0 9.24 0 14 0 C22.98406351 28.79206411 22.98406351 28.79206411 26.0625 39.1875 C26.26576904 39.86804443 26.46903809 40.54858887 26.6784668 41.24975586 C28 45.7562493 28 45.7562493 28 48 C23.38 48 18.76 48 14 48 C13.67 45.36 13.34 42.72 13 40 C7.06 40.495 7.06 40.495 1 41 C0.34 43.31 -0.32 45.62 -1 48 C-5.29 48 -9.58 48 -14 48 C-11.47845593 37.25602963 -8.48685746 26.69115831 -5.3125 16.125 C-5.1085965 15.44435486 -4.90469299 14.76370972 -4.6946106 14.06243896 C-1.18829031 2.37658061 -1.18829031 2.37658061 0 0 Z M6 16 C4.2505382 22.40215071 4.2505382 22.40215071 4 29 C5.98 29 7.96 29 10 29 C9.71812064 27.20676747 9.4241719 25.41542874 9.125 23.625 C8.88136719 22.12839844 8.88136719 22.12839844 8.6328125 20.6015625 C8.2041198 17.8574885 8.2041198 17.8574885 6 16 Z " fill="#5C253D" transform="translate(657,73)"/>
<path d="M0 0 C6.0328125 -0.0928125 6.0328125 -0.0928125 12.1875 -0.1875 C14.07698364 -0.22846802 14.07698364 -0.22846802 16.00463867 -0.27026367 C17.50861206 -0.28150269 17.50861206 -0.28150269 19.04296875 -0.29296875 C20.06414795 -0.3086792 21.08532715 -0.32438965 22.13745117 -0.34057617 C25.45662091 0.05432718 27.30981829 1.05284361 30 3 C33.16173256 7.86669414 33.53576147 13.37450453 33 19 C31.81165498 22.75266848 30.50483581 25.36488398 28.0625 28.4375 C23.12516169 30.95655016 18.48679969 30.24117801 13 30 C13 35.94 13 41.88 13 48 C8.71 48 4.42 48 0 48 C0 32.16 0 16.32 0 0 Z M13 10 C13 13.3 13 16.6 13 20 C16.81813447 19.72459296 16.81813447 19.72459296 20 18 C20.33340471 15.04195427 20.33340471 15.04195427 20 12 C17.04622502 9.63019987 17.04622502 9.63019987 13 10 Z " fill="#5C253D" transform="translate(533,73)"/>
<path d="M0 0 C1.98 0 3.96 0 6 0 C6 7.26 6 14.52 6 22 C9.465 21.505 9.465 21.505 13 21 C12.773125 20.113125 12.54625 19.22625 12.3125 18.3125 C11.94339789 14.4000176 12.70088838 13.09495795 15 10 C16 9 16 9 19.375 8.8125 C23 9 23 9 26 11 C26.546875 12.83984375 26.546875 12.83984375 26.75 14.9375 C26.82734375 15.62714844 26.9046875 16.31679688 26.984375 17.02734375 C27 19 27 19 26 22 C28.40877257 21.88658466 28.40877257 21.88658466 31 21 C32.78969026 18.57327433 32.78969026 18.57327433 34 16 C35 15 35 15 38.3125 14.6875 C42 15 42 15 44.4375 16.8125 C46 19 46 19 46 22 C48.31 21.34 50.62 20.68 53 20 C53.33 13.4 53.66 6.8 54 0 C55.65 0 57.3 0 59 0 C59.02505615 0.56509277 59.0501123 1.13018555 59.07592773 1.71240234 C59.19179956 4.26683742 59.31456537 6.8208955 59.4375 9.375 C59.47681641 10.26445313 59.51613281 11.15390625 59.55664062 12.0703125 C59.59853516 12.92109375 59.64042969 13.771875 59.68359375 14.6484375 C59.73858032 15.82672119 59.73858032 15.82672119 59.79467773 17.02880859 C59.890891 19.07523496 59.890891 19.07523496 61 21 C63.31 21 65.62 21 68 21 C68.33 14.07 68.66 7.14 69 0 C70.98 0 72.96 0 75 0 C75.08714316 3.91652632 75.14043985 7.83280311 75.1875 11.75 C75.21263672 12.86117187 75.23777344 13.97234375 75.26367188 15.1171875 C75.27333984 16.18710937 75.28300781 17.25703125 75.29296875 18.359375 C75.3086792 19.34389648 75.32438965 20.32841797 75.34057617 21.34277344 C74.94297345 24.4449297 74.19920775 25.79982839 72 28 C68.96875 28.390625 68.96875 28.390625 65.5 28.25 C63.78296875 28.19585937 63.78296875 28.19585937 62.03125 28.140625 C61.0309375 28.09421875 60.030625 28.0478125 59 28 C56.14635504 28 53.34660941 28.11736952 50.5 28.3125 C49.5409375 28.37050781 48.581875 28.42851563 47.59375 28.48828125 C44.65776361 29.06751953 43.95110816 29.84411081 42 32 C39.0625 32.375 39.0625 32.375 36 32 C35.40703125 31.51144531 34.8140625 31.02289063 34.203125 30.51953125 C31.29730674 28.51534099 29.19765487 28.49468797 25.6875 28.3125 C23.84285156 28.21001953 23.84285156 28.21001953 21.9609375 28.10546875 C19.24331236 28.03310595 16.565865 28.00297179 13.8515625 28.05078125 C13.17649658 28.06133545 12.50143066 28.07188965 11.8059082 28.08276367 C9.89748552 28.12319933 7.98967366 28.18989644 6.08203125 28.2578125 C3 28 3 28 1.32568359 26.84399414 C-0.538618 24.25079526 -0.34125969 22.40938612 -0.29296875 19.23828125 C-0.28330078 18.12001953 -0.27363281 17.00175781 -0.26367188 15.84960938 C-0.23853516 14.68236328 -0.21339844 13.51511719 -0.1875 12.3125 C-0.17396484 11.13365234 -0.16042969 9.95480469 -0.14648438 8.74023438 C-0.11109326 5.82636589 -0.06171809 2.91341055 0 0 Z M19 14 C18.3185177 15.89179203 18.3185177 15.89179203 18 18 C18.66 18.66 19.32 19.32 20 20 C20.33 18.35 20.66 16.7 21 15 C20.34 14.67 19.68 14.34 19 14 Z M37 21 C37.33 22.65 37.66 24.3 38 26 C38.66 26 39.32 26 40 26 C40 24.35 40 22.7 40 21 C39.01 21 38.02 21 37 21 Z " fill="#A7A9AC" transform="translate(529,24)"/>
<path d="M0 0 C2.375 1.5625 2.375 1.5625 4 4 C4.25 7.75 4.25 7.75 4 11 C6.64 11 9.28 11 12 11 C12 7.7 12 4.4 12 1 C13.65 1 15.3 1 17 1 C17.33 4.3 17.66 7.6 18 11 C18.66 11 19.32 11 20 11 C20 7.7 20 4.4 20 1 C21.98 1 23.96 1 26 1 C26.04898438 1.63808594 26.09796875 2.27617188 26.1484375 2.93359375 C26.22320313 3.75988281 26.29796875 4.58617187 26.375 5.4375 C26.47941406 6.67306641 26.47941406 6.67306641 26.5859375 7.93359375 C26.79089844 8.95646484 26.79089844 8.95646484 27 10 C27.66 10.33 28.32 10.66 29 11 C29 7.37 29 3.74 29 0 C30.98 0 32.96 0 35 0 C35.06058594 0.63808594 35.12117187 1.27617188 35.18359375 1.93359375 C35.26738281 2.75988281 35.35117187 3.58617187 35.4375 4.4375 C35.51871094 5.26121094 35.59992187 6.08492187 35.68359375 6.93359375 C35.78930815 8.98662025 35.78930815 8.98662025 37 10 C39.33297433 10.04092937 41.66705225 10.04241723 44 10 C44.33 6.7 44.66 3.4 45 0 C46.65 0 48.3 0 50 0 C50.66 3.3 51.32 6.6 52 10 C54.97 10.495 54.97 10.495 58 11 C57.9175 9.9275 57.835 8.855 57.75 7.75 C58 4 58 4 59.5625 1.5625 C62.90506283 -0.58016848 65.10495209 -0.49573337 69 0 C70.875 1.0625 70.875 1.0625 72 3 C73.11438862 7.62899888 73.39727266 10.80477284 71 15 C67.92358104 17.05094597 67.33434648 17.24568381 63.875 17.1953125 C63.08609375 17.18886719 62.2971875 17.18242188 61.484375 17.17578125 C60.66453125 17.15902344 59.8446875 17.14226563 59 17.125 C58.18015625 17.11597656 57.3603125 17.10695313 56.515625 17.09765625 C54.9921287 17.08023064 53.46866992 17.05869734 51.9453125 17.03173828 C50.29706041 17.00484662 48.64847145 17 47 17 C32.33333333 17 17.66666667 17 3 17 C2.89429688 17.77730469 2.78859375 18.55460937 2.6796875 19.35546875 C2 22 2 22 -0.875 24.3125 C-4 26 -4 26 -7 26 C-10 22.66666667 -10 22.66666667 -10 20 C-8.35 19.34 -6.7 18.68 -5 18 C-5.825 17.360625 -6.65 16.72125 -7.5 16.0625 C-10.46244234 12.43350813 -10.69806321 10.63582231 -10.41796875 6.09375 C-10 4 -10 4 -8.375 1.4375 C-5.27451464 -0.43910956 -3.56716403 -0.59452734 0 0 Z M65 5 C63.70366379 6.06645115 63.70366379 6.06645115 63.9375 8.5625 C63.958125 9.366875 63.97875 10.17125 64 11 C64.99 10.67 65.98 10.34 67 10 C66.67 8.35 66.34 6.7 66 5 C65.67 5 65.34 5 65 5 Z M-4 6 C-4.33 6.99 -4.66 7.98 -5 9 C-4.67 9.66 -4.34 10.32 -4 11 C-3.34 11 -2.68 11 -2 11 C-2 9.35 -2 7.7 -2 6 C-2.66 6 -3.32 6 -4 6 Z " fill="#A7A9AC" transform="translate(730,35)"/>
<path d="M0 0 C11.88 0 23.76 0 36 0 C36 3.96 36 7.92 36 12 C32.04 12 28.08 12 24 12 C24 23.88 24 35.76 24 48 C20.04 48 16.08 48 12 48 C12 36.12 12 24.24 12 12 C8.04 12 4.08 12 0 12 C0 8.04 0 4.08 0 0 Z " fill="#5C253D" transform="translate(610,73)"/>
<path d="M0 0 C1.98 0 3.96 0 6 0 C6.33 6.93 6.66 13.86 7 21 C9.31 21 11.62 21 14 21 C15.58272601 19.41727399 15.34735747 17.61965997 15.5625 15.4375 C15.64628906 14.61121094 15.73007812 13.78492188 15.81640625 12.93359375 C15.87699219 12.29550781 15.93757812 11.65742187 16 11 C17.65 11 19.3 11 21 11 C21.33 13.97 21.66 16.94 22 20 C23.98 20.66 25.96 21.32 28 22 C28.28875 21.030625 28.5775 20.06125 28.875 19.0625 C30 16 30 16 32 15 C38.31147541 14.54098361 38.31147541 14.54098361 40.875 16.25 C42.10506663 18.16343698 42.61502006 19.76711635 43 22 C44.98 21.67 46.96 21.34 49 21 C49.33 17.7 49.66 14.4 50 11 C51.98 11 53.96 11 56 11 C56.06058594 11.63808594 56.12117187 12.27617188 56.18359375 12.93359375 C56.26738281 13.75988281 56.35117187 14.58617187 56.4375 15.4375 C56.51871094 16.26121094 56.59992187 17.08492187 56.68359375 17.93359375 C56.78930815 19.98662025 56.78930815 19.98662025 58 21 C60.33297433 21.04092937 62.66705225 21.04241723 65 21 C65.33 17.7 65.66 14.4 66 11 C67.65 11 69.3 11 71 11 C71.05383848 13.45862401 71.09359038 15.9160755 71.125 18.375 C71.14175781 19.07367188 71.15851563 19.77234375 71.17578125 20.4921875 C71.19344267 22.32897486 71.10303261 24.16601963 71 26 C69 28 69 28 65.69140625 28.16015625 C64.31494102 28.13544745 62.93860831 28.10241235 61.5625 28.0625 C56.59010175 27.99706635 51.65241817 27.96641991 46.6875 28.3125 C45.84574219 28.37050781 45.00398437 28.42851563 44.13671875 28.48828125 C41.57718159 29.10125998 40.79143391 30.13985355 39 32 C35.5 32.375 35.5 32.375 32 32 C31 31 30 30 29 29 C24.20232685 27.9045482 19.39209874 27.97206491 14.49609375 28.0703125 C13.14323353 28.08886298 11.79036873 28.10708121 10.4375 28.125 C9.75236328 28.14175781 9.06722656 28.15851562 8.36132812 28.17578125 C6.57334455 28.1933277 4.78507616 28.10342272 3 28 C0.32151454 25.32151454 0.69495994 23.86029139 0.5859375 20.1171875 C0.54726563 18.95058594 0.50859375 17.78398438 0.46875 16.58203125 C0.4378125 15.35871094 0.406875 14.13539062 0.375 12.875 C0.33632813 11.64394531 0.29765625 10.41289063 0.2578125 9.14453125 C0.1633001 6.09650624 0.07774506 3.04849138 0 0 Z M35 20 C33.70366379 21.06645115 33.70366379 21.06645115 33.9375 23.5625 C33.958125 24.366875 33.97875 25.17125 34 26 C34.99 26 35.98 26 37 26 C37 24.35 37 22.7 37 21 C36.34 20.67 35.68 20.34 35 20 Z " fill="#A7A9AC" transform="translate(614,24)"/>
<path d="M0 0 C1.65 0 3.3 0 5 0 C5 51.15 5 102.3 5 155 C3.35 155 1.7 155 0 155 C0 103.85 0 52.7 0 0 Z " fill="#5C253D" transform="translate(332,21)"/>
<path d="M0 0 C1.65 0 3.3 0 5 0 C5.83211276 5.03854106 6.1078534 9.8125662 6.0625 14.9375 C6.05798828 15.62134766 6.05347656 16.30519531 6.04882812 17.00976562 C6.0371956 18.67321604 6.01926694 20.3366205 6 22 C9.96 21.67 13.92 21.34 18 21 C16.02 20.01 14.04 19.02 12 18 C11.75 15.6875 11.75 15.6875 12 13 C14.66173482 9.89464271 17.90859193 9.30293533 21.90234375 8.9296875 C25.51437294 9.0507611 27.85066725 10.23637366 31 12 C31.99 13.485 31.99 13.485 33 15 C31.68 17.31 30.36 19.62 29 22 C31.97 21.67 34.94 21.34 38 21 C38.33 14.07 38.66 7.14 39 0 C40.98 0 42.96 0 45 0 C45.08694042 4.10403363 45.14037149 8.20783129 45.1875 12.3125 C45.21263672 13.47974609 45.23777344 14.64699219 45.26367188 15.84960938 C45.27333984 16.96787109 45.28300781 18.08613281 45.29296875 19.23828125 C45.3086792 20.26993408 45.32438965 21.30158691 45.34057617 22.36450195 C44.94050822 25.46036826 44.4044939 26.10767218 42 28 C38.93992854 28.29840623 36.08768025 28.42021977 33.02734375 28.3984375 C32.14849014 28.40130768 31.26963654 28.40417786 30.364151 28.40713501 C28.50732783 28.40917578 26.65048317 28.40364499 24.79370117 28.39111328 C21.94466362 28.37504041 19.0970406 28.39097111 16.24804688 28.41015625 C14.44530936 28.4081742 12.64257272 28.40433131 10.83984375 28.3984375 C9.55701759 28.40754654 9.55701759 28.40754654 8.24827576 28.4168396 C5.85131836 28.38818359 5.85131836 28.38818359 2 28 C-0.29755922 24.55366118 -0.23643976 23.28931609 -0.1953125 19.23828125 C-0.18886719 18.12001953 -0.18242187 17.00175781 -0.17578125 15.84960938 C-0.15902344 14.68236328 -0.14226562 13.51511719 -0.125 12.3125 C-0.11597656 11.13365234 -0.10695313 9.95480469 -0.09765625 8.74023438 C-0.07406423 5.82661974 -0.0411454 2.91341108 0 0 Z M22 16 C22.66 16.66 23.32 17.32 24 18 C24.33 17.34 24.66 16.68 25 16 C24.01 16 23.02 16 22 16 Z " fill="#A7A9AC" transform="translate(404,24)"/>
<path d="M0 0 C2.93705991 1.8230027 4.83967995 3.95222659 5.8984375 7.234375 C5.8984375 8.224375 5.8984375 9.214375 5.8984375 10.234375 C3.2584375 10.564375 0.6184375 10.894375 -2.1015625 11.234375 C-2.4934375 10.595 -2.8853125 9.955625 -3.2890625 9.296875 C-4.95062015 7.07570403 -4.95062015 7.07570403 -7.4765625 6.359375 C-10.63118103 6.20915507 -12.35774541 6.67707341 -15.1015625 8.234375 C-17.50639948 11.21179221 -17.45098525 14.522659 -17.3671875 18.265625 C-16.92879567 21.51488209 -15.39530287 23.94063463 -13.1015625 26.234375 C-7.01687693 26.46814423 -7.01687693 26.46814423 -1.1015625 25.234375 C-1.1015625 23.914375 -1.1015625 22.594375 -1.1015625 21.234375 C-3.7415625 21.234375 -6.3815625 21.234375 -9.1015625 21.234375 C-9.1015625 19.254375 -9.1015625 17.274375 -9.1015625 15.234375 C-4.1515625 15.234375 0.7984375 15.234375 5.8984375 15.234375 C5.8984375 20.184375 5.8984375 25.134375 5.8984375 30.234375 C-0.97746114 34.54866435 -7.04953198 35.27368533 -15.1015625 34.234375 C-19.59140146 32.10760918 -22.33018983 29.34011229 -25.1015625 25.234375 C-26.98819501 19.24746116 -27.07248461 12.64077418 -24.5390625 6.859375 C-19.52440149 -1.68284066 -8.98779217 -3.27436295 0 0 Z " fill="#A7A9AC" transform="translate(478.1015625,136.765625)"/>
<path d="M0 0 C0.99 0.66 1.98 1.32 3 2 C3.33 1.34 3.66 0.68 4 0 C6.31 0 8.62 0 11 0 C11.05859888 3.83326795 11.09379643 7.66641888 11.125 11.5 C11.14175781 12.57765625 11.15851562 13.6553125 11.17578125 14.765625 C11.26472608 29.35257715 11.26472608 29.35257715 7.3125 33.97265625 C4.12564513 35.38843806 1.47892072 35.4338147 -2 35.4375 C-3.216875 35.45683594 -4.43375 35.47617188 -5.6875 35.49609375 C-9 35 -9 35 -11.421875 33.14453125 C-13.32717669 30.55539604 -13.34932999 29.14396994 -13 26 C-8.40356273 26.45964373 -5.10222957 26.872918 -1 29 C-0.01 28.67 0.98 28.34 2 28 C2.73323796 25.98491642 2.73323796 25.98491642 3 24 C2.2575 24.5259375 2.2575 24.5259375 1.5 25.0625 C-2.14934273 26.43100352 -5.30248645 26.19960398 -9 25 C-12.96786431 21.03213569 -14.16064628 18.19020008 -14.25 12.6875 C-14.20418152 8.31183482 -14.04558112 5.37189339 -11 2 C-7.58542621 -0.56093034 -4.14438649 -0.30140993 0 0 Z M-4 6 C-6.42520546 8.42520546 -6.68564441 9.62067741 -7 13 C-6.00022932 16.28805688 -6.00022932 16.28805688 -4 19 C-1.54207971 19.33343551 -1.54207971 19.33343551 1 19 C3.46324069 15.30513897 3.38991688 13.36706908 3 9 C1.89350331 6.97521537 1.89350331 6.97521537 0 6 C-1.32 6 -2.64 6 -4 6 Z " fill="#A7A9AC" transform="translate(886,145)"/>
<path d="M0 0 C3.96 0 7.92 0 12 0 C12 15.84 12 31.68 12 48 C8.04 48 4.08 48 0 48 C0 32.16 0 16.32 0 0 Z " fill="#5C253D" transform="translate(737,73)"/>
<path d="M0 0 C1.98 0 3.96 0 6 0 C6.06058594 0.63808594 6.12117187 1.27617188 6.18359375 1.93359375 C6.26738281 2.75988281 6.35117187 3.58617187 6.4375 4.4375 C6.51871094 5.26121094 6.59992187 6.08492187 6.68359375 6.93359375 C6.78930815 8.98662025 6.78930815 8.98662025 8 10 C10.32817964 10.36760731 12.6618385 10.70241581 15 11 C15 7.7 15 4.4 15 1 C16.98 1 18.96 1 21 1 C21.33 4.3 21.66 7.6 22 11 C22.66 11 23.32 11 24 11 C24 7.7 24 4.4 24 1 C25.98 1 27.96 1 30 1 C30.04898438 1.63808594 30.09796875 2.27617188 30.1484375 2.93359375 C30.22320313 3.75988281 30.29796875 4.58617187 30.375 5.4375 C30.47941406 6.67306641 30.47941406 6.67306641 30.5859375 7.93359375 C30.79089844 8.95646484 30.79089844 8.95646484 31 10 C31.66 10.33 32.32 10.66 33 11 C33 7.37 33 3.74 33 0 C34.98 0 36.96 0 39 0 C39.08160748 1.89510699 39.13946459 3.79124504 39.1875 5.6875 C39.23970703 7.27111328 39.23970703 7.27111328 39.29296875 8.88671875 C38.94996074 12.53175053 38.30868907 14.16366133 36 17 C32.953125 17.58007812 32.953125 17.58007812 29.25 17.53125 C28.59547852 17.53451294 27.94095703 17.53777588 27.26660156 17.5411377 C24.47006366 17.5543069 21.67511934 17.50948027 18.87890625 17.47021484 C16.83543709 17.44976113 14.79350885 17.45856264 12.75 17.46875 C10.91695312 17.44458008 10.91695312 17.44458008 9.046875 17.41992188 C5.81423411 17.67577855 5.81423411 17.67577855 4.234375 20.41992188 C3.82703125 21.27134766 3.4196875 22.12277344 3 23 C0.03759752 25.1477418 -1.31446856 26 -5 26 C-5.99 24.02 -6.98 22.04 -8 20 C-7.030625 19.525625 -6.06125 19.05125 -5.0625 18.5625 C-2.19522563 17.29806053 -2.19522563 17.29806053 -1 16 C-0.76321284 13.30764224 -0.57801975 10.63501844 -0.4375 7.9375 C-0.37272461 6.79958008 -0.37272461 6.79958008 -0.30664062 5.63867188 C-0.20026367 3.75934562 -0.09960066 1.87969756 0 0 Z " fill="#A7A9AC" transform="translate(856,35)"/>
<path d="M0 0 C3.35608906 1.23141671 5.37697397 3.06546095 7.375 6.0625 C8 8 8 8 8 11 C5.36 11.33 2.72 11.66 0 12 C-0.4125 11.360625 -0.825 10.72125 -1.25 10.0625 C-2.82282408 7.93520054 -2.82282408 7.93520054 -4.875 7.0625 C-7.95322904 6.97196385 -9.55729426 8.217485 -12 10 C-13.28282363 12.56564725 -13.20391953 14.51033069 -13.25 17.375 C-13.27578125 18.33148438 -13.3015625 19.28796875 -13.328125 20.2734375 C-12.94694016 23.44090199 -12.28024476 24.78727957 -10 27 C-6.37436186 27.33380814 -6.37436186 27.33380814 -3 27 C-2.01 25.02 -1.02 23.04 0 21 C2.64 21.66 5.28 22.32 8 23 C7.5535141 28.06017356 5.404811 30.43305514 2 34 C-2.62835514 35.54278505 -7.1664845 35.50478774 -12 35 C-17.14853681 32.4257316 -20.182008 29.45397599 -22 24 C-22.95027159 10.31243421 -22.95027159 10.31243421 -19 5 C-12.92390616 -0.4833042 -8.02766989 -0.76503904 0 0 Z " fill="#A7A9AC" transform="translate(661,136)"/>
<path d="M0 0 C1.32 0.66 2.64 1.32 4 2 C3.125 6.875 3.125 6.875 2 8 C2.78375 8.53625 3.5675 9.0725 4.375 9.625 C7.43819931 12.39646604 8.13637458 13.9959185 9 18 C9 20.31 9 22.62 9 25 C-0.24 25 -9.48 25 -19 25 C-19.66 23.68 -20.32 22.36 -21 21 C-22.155 20.835 -23.31 20.67 -24.5 20.5 C-25.655 20.335 -26.81 20.17 -28 20 C-30.07742989 17.06793123 -30.19452749 14.8727295 -29.75 11.375 C-29.61851562 10.21097656 -29.61851562 10.21097656 -29.484375 9.0234375 C-29 7 -29 7 -27 5 C-23.31975395 4.72370525 -19.69505443 4.9140685 -16 5 C-15.67 9.29 -15.34 13.58 -15 18 C-9.39 18 -3.78 18 2 18 C1.01 17.01 0.02 16.02 -1 15 C-4.64541845 15.23477199 -4.64541845 15.23477199 -8 16 C-8.77734375 13.3359375 -8.77734375 13.3359375 -9 10 C-7.12890625 7.2265625 -7.12890625 7.2265625 -4.5625 4.625 C-3.71816406 3.75101563 -2.87382813 2.87703125 -2.00390625 1.9765625 C-1.34261719 1.32429688 -0.68132813 0.67203125 0 0 Z M-24 11 C-24 12.32 -24 13.64 -24 15 C-23.34 15 -22.68 15 -22 15 C-22 13.68 -22 12.36 -22 11 C-22.66 11 -23.32 11 -24 11 Z " fill="#A7A9AC" transform="translate(841,27)"/>
<path d="M0 0 C7.92 0 15.84 0 24 0 C24 2.31 24 4.62 24 7 C18.72 7 13.44 7 8 7 C8 9.31 8 11.62 8 14 C12.62 14 17.24 14 22 14 C22 15.98 22 17.96 22 20 C17.38 20 12.76 20 8 20 C8 24.95 8 29.9 8 35 C5.36 35 2.72 35 0 35 C0 23.45 0 11.9 0 0 Z " fill="#A7A9AC" transform="translate(365,136)"/>
<path d="M0 0 C0.95648437 -0.02578125 1.91296875 -0.0515625 2.8984375 -0.078125 C6.05928645 0.3022637 7.36491733 1.04151739 9.625 3.25 C10.5550889 6.0402667 10.81198769 8.01529542 10.94140625 10.91796875 C10.98330078 11.81064453 11.02519531 12.70332031 11.06835938 13.62304688 C11.10767578 14.55181641 11.14699219 15.48058594 11.1875 16.4375 C11.23068359 17.37787109 11.27386719 18.31824219 11.31835938 19.28710938 C11.42438665 21.60792854 11.52645029 23.92885325 11.625 26.25 C4.875 26.375 4.875 26.375 2.625 25.25 C1.965 25.58 1.305 25.91 0.625 26.25 C-6.39386792 26.70283019 -6.39386792 26.70283019 -9.8125 25.125 C-12.0101705 22.4877954 -12.30670718 20.66464098 -12.375 17.25 C-11.265625 14.66796875 -11.265625 14.66796875 -9.375 12.25 C-6.45703125 11.10546875 -6.45703125 11.10546875 -3.1875 10.4375 C-2.10082031 10.20417969 -1.01414062 9.97085938 0.10546875 9.73046875 C0.93691406 9.57191406 1.76835938 9.41335937 2.625 9.25 C2.295 8.59 1.965 7.93 1.625 7.25 C-0.025 7.25 -1.675 7.25 -3.375 7.25 C-3.705 7.91 -4.035 8.57 -4.375 9.25 C-6.685 8.92 -8.995 8.59 -11.375 8.25 C-10.8110709 4.97921124 -9.91819569 3.38628438 -7.375 1.25 C-4.80935275 -0.03282363 -2.86466931 0.04608047 0 0 Z M-4.375 17.25 C-3.715 18.57 -3.055 19.89 -2.375 21.25 C-0.725 20.59 0.925 19.93 2.625 19.25 C2.625 17.93 2.625 16.61 2.625 15.25 C-1.42122502 14.88019987 -1.42122502 14.88019987 -4.375 17.25 Z " fill="#A7A9AC" transform="translate(598.375,144.75)"/>
<path d="M0 0 C2.3821875 0.0928125 2.3821875 0.0928125 4.8125 0.1875 C5.1425 4.8075 5.4725 9.4275 5.8125 14.1875 C8.1225 14.1875 10.4325 14.1875 12.8125 14.1875 C12.750625 13.115 12.68875 12.0425 12.625 10.9375 C12.8125 7.1875 12.8125 7.1875 13.8125 4.75 C16.51179551 2.64117538 18.52789248 2.74756703 21.875 2.75390625 C24.4183115 3.32307475 25.29705689 4.07422153 26.8125 6.1875 C27.24609375 8.52734375 27.24609375 8.52734375 27.25 11.125 C27.26933594 11.97964844 27.28867187 12.83429687 27.30859375 13.71484375 C26.8125 16.1875 26.8125 16.1875 25.45703125 18.48828125 C21.2292085 21.20482911 16.96651962 20.60727964 12.0625 20.4375 C10.58716797 20.41042969 10.58716797 20.41042969 9.08203125 20.3828125 C6.65786217 20.33574126 4.23567941 20.27000742 1.8125 20.1875 C1.1525 18.8675 0.4925 17.5475 -0.1875 16.1875 C-0.950625 16.249375 -1.71375 16.31125 -2.5 16.375 C-5.1875 16.1875 -5.1875 16.1875 -6.83203125 14.98828125 C-8.61472679 12.61991629 -8.58875032 11.12753586 -8.5625 8.1875 C-8.57023437 7.32125 -8.57796875 6.455 -8.5859375 5.5625 C-8.1875 3.1875 -8.1875 3.1875 -6.98828125 1.38671875 C-4.55356279 -0.23466643 -2.89783065 -0.11290249 0 0 Z M-2.1875 6.1875 C-2.1875 7.5075 -2.1875 8.8275 -2.1875 10.1875 C-1.5275 10.1875 -0.8675 10.1875 -0.1875 10.1875 C-0.5175 8.8675 -0.8475 7.5475 -1.1875 6.1875 C-1.5175 6.1875 -1.8475 6.1875 -2.1875 6.1875 Z M19.8125 8.1875 C18.70413577 10.07066159 18.70413577 10.07066159 17.8125 12.1875 C18.1425 12.8475 18.4725 13.5075 18.8125 14.1875 C19.8025 13.8575 20.7925 13.5275 21.8125 13.1875 C21.4825 11.5375 21.1525 9.8875 20.8125 8.1875 C20.4825 8.1875 20.1525 8.1875 19.8125 8.1875 Z " fill="#A7A9AC" transform="translate(373.1875,31.8125)"/>
<path d="M0 0 C2.35673914 1.82675474 3.36750075 3.39820432 5 6 C5 7.32 5 8.64 5 10 C2.69 10.33 0.38 10.66 -2 11 C-2.66 10.01 -3.32 9.02 -4 8 C-5.32 8.33 -6.64 8.66 -8 9 C-8.2236337 10.41433206 -8.42826476 11.83167618 -8.625 13.25 C-8.74101563 14.03890625 -8.85703125 14.8278125 -8.9765625 15.640625 C-9.00319395 18.32152459 -8.36592084 19.72694089 -7 22 C-5.68 22 -4.36 22 -3 22 C-2.67 20.35 -2.34 18.7 -2 17 C0.31 17.66 2.62 18.32 5 19 C4.72671902 22.55265269 4.38829012 25.31166751 2.625 28.4375 C-1.70028082 31.01207192 -6.11441927 30.83359315 -11 30 C-15.25696745 27.04618585 -16.93745493 24.02294035 -18 19 C-18.62508987 12.89421146 -18.00918829 8.37355052 -15 3 C-10.58103839 -1.14277651 -5.74201331 -1.83208207 0 0 Z " fill="#5C253D" transform="translate(894,91)"/>
<path d="M0 0 C0.92683594 -0.01933594 1.85367188 -0.03867188 2.80859375 -0.05859375 C6.64724238 0.63290749 8.05730877 1.39484754 10.5625 4.4375 C11.32153728 8.18221137 11.3532322 11.87571692 11.375 15.6875 C11.40013672 16.71875 11.42527344 17.75 11.45117188 18.8125 C11.51001562 21.35454989 11.54631507 23.89487916 11.5625 26.4375 C9.2525 26.4375 6.9425 26.4375 4.5625 26.4375 C4.5625 25.7775 4.5625 25.1175 4.5625 24.4375 C3.5725 25.0975 2.5825 25.7575 1.5625 26.4375 C-2.69513793 27.11182203 -6.28216258 27.14197403 -10 24.875 C-12.00081202 21.48231874 -11.99076548 19.31035839 -11.4375 15.4375 C-9.72073149 12.67574196 -8.34987291 11.67356851 -5.203125 10.859375 C-3.59718425 10.54227842 -1.98313385 10.26329609 -0.36328125 10.02734375 C0.58998047 9.73537109 0.58998047 9.73537109 1.5625 9.4375 C1.8925 8.4475 2.2225 7.4575 2.5625 6.4375 C1.655 6.746875 0.7475 7.05625 -0.1875 7.375 C-7.40360169 9.73411017 -7.40360169 9.73411017 -11.4375 8.4375 C-9.42384146 2.22871949 -6.55075745 0.00908566 0 0 Z M-4.4375 17.4375 C-3.7775 18.7575 -3.1175 20.0775 -2.4375 21.4375 C0.08613988 20.81216625 0.08613988 20.81216625 2.5625 19.4375 C3.45636164 16.88974694 3.45636164 16.88974694 3.5625 14.4375 C0.95310143 14.4375 -2.0776989 16.40776861 -4.4375 17.4375 Z " fill="#A7A9AC" transform="translate(774.4375,144.5625)"/>
<path d="M0 0 C3.15645345 2.77385304 4.79912383 4.8917811 5.3828125 9.1484375 C5.63992228 14.85627462 5.02258578 18.41240469 1.0625 22.8125 C-3.38132196 25.5544327 -7.86707018 25.46029939 -12.9375 24.8125 C-16.45406033 23.11701556 -18.2833331 21.88295493 -20.3125 18.5625 C-21.48010264 13.42504838 -21.50938856 9.40776808 -19.75 4.5 C-15.1365492 -2.34063395 -7.35198942 -2.97208083 0 0 Z M-11.6875 5.8125 C-13.67395613 8.99082981 -13.49009954 12.17139894 -12.9375 15.8125 C-11.93261774 17.98750647 -11.93261774 17.98750647 -9.9375 18.8125 C-6.59557308 18.56796876 -5.33206443 18.20706443 -2.9375 15.8125 C-2.37593945 10.54132643 -2.37593945 10.54132643 -4.1875 5.8125 C-6.82693544 4.30425118 -9.04806456 4.30425118 -11.6875 5.8125 Z " fill="#A7A9AC" transform="translate(412.9375,146.1875)"/>
<path d="M0 0 C4.09199196 2.08319591 6.30799578 3.75850526 8 8 C8.7121481 13.01815989 8.52912753 16.94174495 6.25 21.5 C3.54473876 24.50584582 1.62705452 25.79628748 -2.40234375 26.30078125 C-11.3237774 26.34202054 -11.3237774 26.34202054 -15 23 C-18.03217022 18.50402346 -18.95138112 14.29602155 -18 9 C-13.99824496 1.14470308 -8.53145602 -1.36683538 0 0 Z M-8.1875 7.5625 C-10.65485184 10.88066282 -10.51451424 12.95738812 -10 17 C-8.97578739 19.10938785 -8.97578739 19.10938785 -7 20 C-4.43810155 20.15474612 -4.43810155 20.15474612 -2 19 C0.09762034 16.89299553 0.09762034 16.89299553 1 14 C0.23827309 10.46835704 -0.43871412 8.56128588 -3 6 C-6.04117104 5.7093809 -6.04117104 5.7093809 -8.1875 7.5625 Z " fill="#A7A9AC" transform="translate(690,145)"/>
<path d="M0 0 C3.91188594 1.84925517 5.53784872 3.0126768 7.375 6.9375 C8 10 8 10 8 15 C2.72 15 -2.56 15 -8 15 C-7.34 16.32 -6.68 17.64 -6 19 C-3.44480079 19.81171228 -3.44480079 19.81171228 -1 20 C-0.67 19.01 -0.34 18.02 0 17 C2.31 17.33 4.62 17.66 7 18 C6.4360709 21.27078876 5.54319569 22.86371562 3 25 C-0.70221166 26.85110583 -4.95906917 26.46454795 -9 26 C-12.66132789 23.8642254 -14.38381862 21.8534281 -16 18 C-16.78778935 12.37293322 -16.20098795 7.80148193 -13 3 C-9.54021332 -0.99206156 -4.91117206 -0.75752914 0 0 Z M-6 6 C-6.66 7.32 -7.32 8.64 -8 10 C-5.36 10 -2.72 10 0 10 C-0.66 8.68 -1.32 7.36 -2 6 C-3.32 6 -4.64 6 -6 6 Z " fill="#A7A9AC" transform="translate(558,145)"/>
<path d="M0 0 C3.57623788 1.9137306 5.69762236 4.09286708 7 8 C7 10.31 7 12.62 7 15 C1.72 15 -3.56 15 -9 15 C-8.34 16.32 -7.68 17.64 -7 19 C-5.35 19 -3.7 19 -2 19 C-1.67 18.34 -1.34 17.68 -1 17 C1.64 17.33 4.28 17.66 7 18 C5.71929816 21.94883068 4.55644745 23.83872633 1 26 C-3.55101918 26.75480318 -7.74270807 26.52387164 -12 24.75 C-14.9300477 22.18620826 -15.85999785 20.05812151 -16.37109375 16.1953125 C-16.57244136 6.8859466 -16.57244136 6.8859466 -13.625 3.3125 C-9.31239054 -0.48670357 -5.61934613 -0.85798741 0 0 Z M-6 6 C-6.66 7.32 -7.32 8.64 -8 10 C-5.36 10 -2.72 10 0 10 C-0.66 8.68 -1.32 7.36 -2 6 C-3.32 6 -4.64 6 -6 6 Z " fill="#A7A9AC" transform="translate(504,145)"/>
<path d="M0 0 C3.33333333 0 6.66666667 0 10 0 C11.95613943 -0.15775318 13.9122925 -0.31579051 15.8671875 -0.48828125 C19.54967946 0.3547801 20.81773045 1.95462212 23 5 C23.6039862 8.62577676 23.47238873 12.14981806 23.3125 15.8125 C23.28994141 16.79154297 23.26738281 17.77058594 23.24414062 18.77929688 C23.18539727 21.18777455 23.10332129 23.59309078 23 26 C20.36 26 17.72 26 15 26 C14.67 19.73 14.34 13.46 14 7 C12.35 7.33 10.7 7.66 9 8 C7.414131 11.171738 7.62133555 14.63513822 7.4375 18.125 C7.39431641 18.87910156 7.35113281 19.63320312 7.30664062 20.41015625 C7.2005168 22.27321888 7.09974999 24.13658524 7 26 C4.69 26 2.38 26 0 26 C0 17.42 0 8.84 0 0 Z " fill="#A7A9AC" transform="translate(845,145)"/>
<path d="M0 0 C2.31 0 4.62 0 7 0 C7 0.66 7 1.32 7 2 C7.495 1.67 7.99 1.34 8.5 1 C11.93199088 -0.37279635 15.36868233 -0.83690524 19 0 C21.234375 1.3203125 21.234375 1.3203125 23 4 C23.49457783 7.76078826 23.37487433 11.46534714 23.25 15.25 C23.23195313 16.28125 23.21390625 17.3125 23.1953125 18.375 C23.14822712 20.91761064 23.0824805 23.45833162 23 26 C20.69 26 18.38 26 16 26 C15.93941406 24.79601562 15.87882813 23.59203125 15.81640625 22.3515625 C15.73200268 20.77602923 15.64735459 19.20050904 15.5625 17.625 C15.52318359 16.8309375 15.48386719 16.036875 15.44335938 15.21875 C15.31106596 10.97398779 15.31106596 10.97398779 14 7 C12.35 7.33 10.7 7.66 9 8 C8.67 13.94 8.34 19.88 8 26 C5.36 26 2.72 26 0 26 C0 17.42 0 8.84 0 0 Z " fill="#A7A9AC" transform="translate(702,145)"/>
<path d="M0 0 C2.31 0 4.62 0 7 0 C7.33 0.66 7.66 1.32 8 2 C8.99 1.34 9.98 0.68 11 0 C17.88791849 -0.65599224 17.88791849 -0.65599224 21.23828125 1.3203125 C24.09578058 5.66675272 23.41729726 10.17960606 23.25 15.25 C23.23195313 16.28125 23.21390625 17.3125 23.1953125 18.375 C23.14822712 20.91761064 23.0824805 23.45833162 23 26 C20.69 26 18.38 26 16 26 C15.67 20.06 15.34 14.12 15 8 C13.35 7.67 11.7 7.34 10 7 C8.3501993 10.29960141 8.61741639 13.99127884 8.4375 17.625 C8.39431641 18.42679688 8.35113281 19.22859375 8.30664062 20.0546875 C8.20048543 22.0362511 8.09973145 24.01810271 8 26 C5.36 26 2.72 26 0 26 C0 17.42 0 8.84 0 0 Z " fill="#A7A9AC" transform="translate(515,145)"/>
<path d="M0 0 C3.05661905 2.73486967 3.93974578 4.20163153 4.25 8.3125 C4.1675 9.199375 4.085 10.08625 4 11 C7.465 10.505 7.465 10.505 11 10 C11.33 6.7 11.66 3.4 12 0 C13.98 0 15.96 0 18 0 C18.08126087 2.08268593 18.13930839 4.16628658 18.1875 6.25 C18.23970703 7.99023438 18.23970703 7.99023438 18.29296875 9.765625 C17.97255292 13.3030158 17.7037419 14.70181938 15 17 C12.08203125 17.390625 12.08203125 17.390625 8.8125 17.25 C7.72582031 17.21390625 6.63914062 17.1778125 5.51953125 17.140625 C4.68808594 17.09421875 3.85664062 17.0478125 3 17 C2.773125 17.928125 2.54625 18.85625 2.3125 19.8125 C1 23 1 23 -1.375 24.9375 C-4 26 -4 26 -6.1875 26 C-8.79173895 24.56317851 -9.14996208 22.76262325 -10 20 C-8.35 19.34 -6.7 18.68 -5 18 C-5.825 17.360625 -6.65 16.72125 -7.5 16.0625 C-10.46244234 12.43350813 -10.69806321 10.63582231 -10.41796875 6.09375 C-10 4 -10 4 -8.375 1.4375 C-5.25099332 -0.45334615 -3.59011393 -0.67314636 0 0 Z M-4 6 C-4.33 6.99 -4.66 7.98 -5 9 C-4.67 9.66 -4.34 10.32 -4 11 C-3.34 11 -2.68 11 -2 11 C-2 9.35 -2 7.7 -2 6 C-2.66 6 -3.32 6 -4 6 Z " fill="#A7A9AC" transform="translate(699,35)"/>
<path d="M0 0 C1.84765625 1.16796875 1.84765625 1.16796875 3.84765625 4.16796875 C3.84765625 5.48796875 3.84765625 6.80796875 3.84765625 8.16796875 C1.53765625 8.49796875 -0.77234375 8.82796875 -3.15234375 9.16796875 C-3.81234375 8.17796875 -4.47234375 7.18796875 -5.15234375 6.16796875 C-6.80234375 6.49796875 -8.45234375 6.82796875 -10.15234375 7.16796875 C-10.15234375 10.79796875 -10.15234375 14.42796875 -10.15234375 18.16796875 C-8.50234375 18.16796875 -6.85234375 18.16796875 -5.15234375 18.16796875 C-4.49234375 16.84796875 -3.83234375 15.52796875 -3.15234375 14.16796875 C-0.51234375 14.49796875 2.12765625 14.82796875 4.84765625 15.16796875 C4.36813829 19.48363042 3.14530607 21.36996285 -0.15234375 24.16796875 C-3.87946533 26.03152954 -8.09441695 25.7334685 -12.15234375 25.16796875 C-15.77765983 23.29380335 -17.84356014 21.09431958 -19.15234375 17.16796875 C-19.55396493 12.61111306 -19.69291422 8.50516939 -17.96484375 4.23046875 C-13.19946165 -1.19220743 -6.78779883 -2.62395853 0 0 Z " fill="#A7A9AC" transform="translate(808.15234375,145.83203125)"/>
<path d="M0 0 C2.64 0 5.28 0 8 0 C8 7.26 8 14.52 8 22 C11.63 22 15.26 22 19 22 C19 24.64 19 27.28 19 30 C12.73 30 6.46 30 0 30 C0 20.1 0 10.2 0 0 Z " fill="#5C253D" transform="translate(845,91)"/>
<path d="M0 0 C2.64 0 5.28 0 8 0 C8 7.26 8 14.52 8 22 C11.63 22 15.26 22 19 22 C19 24.64 19 27.28 19 30 C12.73 30 6.46 30 0 30 C0 20.1 0 10.2 0 0 Z " fill="#5C253D" transform="translate(813,91)"/>
<path d="M0 0 C0 2.64 0 5.28 0 8 C1.65 8 3.3 8 5 8 C5 10.31 5 12.62 5 15 C3.35 15 1.7 15 0 15 C0.33 19.29 0.66 23.58 1 28 C2.32 27.67 3.64 27.34 5 27 C5 29.31 5 31.62 5 34 C3.56344146 34.08131463 2.1255517 34.13933559 0.6875 34.1875 C-0.51326172 34.23970703 -0.51326172 34.23970703 -1.73828125 34.29296875 C-4 34 -4 34 -5.78125 33 C-7.72956791 29.80276035 -7.31086651 26.43441412 -7.1875 22.8125 C-7.16719727 21.68811523 -7.16719727 21.68811523 -7.14648438 20.54101562 C-7.11118539 18.69370233 -7.05737917 16.84675934 -7 15 C-7.99 15 -8.98 15 -10 15 C-10 12.69 -10 10.38 -10 8 C-9.01 8 -8.02 8 -7 8 C-7.103125 7.236875 -7.20625 6.47375 -7.3125 5.6875 C-7.209375 4.800625 -7.10625 3.91375 -7 3 C-4.6167054 1.18116991 -3.04181663 0 0 0 Z " fill="#A7A9AC" transform="translate(738,137)"/>
<path d="M0 0 C0 2.64 0 5.28 0 8 C1.32 8 2.64 8 4 8 C4 10.31 4 12.62 4 15 C2.68 15 1.36 15 0 15 C0.33 18.96 0.66 22.92 1 27 C2.32 27.33 3.64 27.66 5 28 C5.042721 29.66611905 5.04063832 31.33382885 5 33 C3.41105928 34.58894072 1.75198576 34.16998411 -0.4375 34.1875 C-1.24058594 34.20167969 -2.04367187 34.21585938 -2.87109375 34.23046875 C-5 34 -5 34 -7 32 C-7.14517744 29.0906442 -7.18630796 26.280054 -7.125 23.375 C-7.11597656 22.57320312 -7.10695313 21.77140625 -7.09765625 20.9453125 C-7.07406223 18.96341477 -7.03819065 16.98167019 -7 15 C-7.99 15 -8.98 15 -10 15 C-10 12.69 -10 10.38 -10 8 C-9.01 8 -8.02 8 -7 8 C-7.103125 7.236875 -7.20625 6.47375 -7.3125 5.6875 C-7.209375 4.800625 -7.10625 3.91375 -7 3 C-4.6167054 1.18116991 -3.04181663 0 0 0 Z " fill="#A7A9AC" transform="translate(824,137)"/>
<path d="M0 0 C3.83199486 1.11476214 4.48737915 1.66442016 6.4375 5 C7.49434041 11.18562476 6.55758463 16.62054374 3.4375 22 C-0.43097906 25.96767083 -0.43097906 25.96767083 -3.75 26.0625 C-6.31781377 24.55722986 -6.70920868 22.7731968 -7.5625 20 C-5.9125 19.34 -4.2625 18.68 -2.5625 18 C-3.3875 17.360625 -4.2125 16.72125 -5.0625 16.0625 C-8.02312064 12.43573972 -8.26457567 10.63765328 -7.9765625 6.09765625 C-7.5625 4 -7.5625 4 -6 1.375 C-3.5625 0 -3.5625 0 0 0 Z M-1.5625 5 C-1.8925 6.65 -2.2225 8.3 -2.5625 10 C-1.5725 10.33 -0.5825 10.66 0.4375 11 C0.4375 9.35 0.4375 7.7 0.4375 6 C-0.2225 5.67 -0.8825 5.34 -1.5625 5 Z " fill="#A7A9AC" transform="translate(519.5625,35)"/>
<path d="M0 0 C3 0 6 0 9 0 C9.99 -0.020625 10.98 -0.04125 12 -0.0625 C15 0 15 0 17 1 C16.34 3.31 15.68 5.62 15 8 C12.03 7.505 12.03 7.505 9 7 C8.34 13.27 7.68 19.54 7 26 C4.69 26 2.38 26 0 26 C0 17.42 0 8.84 0 0 Z " fill="#A7A9AC" transform="translate(746,145)"/>
<path d="M0 0 C1.65 0 3.3 0 5 0 C5.20496094 0.63808594 5.40992188 1.27617188 5.62109375 1.93359375 C5.89050781 2.75988281 6.15992188 3.58617187 6.4375 4.4375 C6.70433594 5.26121094 6.97117187 6.08492187 7.24609375 6.93359375 C7.82155494 8.96219588 7.82155494 8.96219588 9 10 C10.68183948 10.23287008 12.3712416 10.41264166 14.0625 10.5625 C15.691875 10.706875 17.32125 10.85125 19 11 C19 7.37 19 3.74 19 0 C20.65 0 22.3 0 24 0 C24.22262606 2.08185451 24.42757926 4.16560426 24.625 6.25 C24.79902344 7.99023438 24.79902344 7.99023438 24.9765625 9.765625 C24.99955595 12.93872091 24.69705154 14.38317244 23 17 C20.41638482 17.05407567 17.83390745 17.093707 15.25 17.125 C14.52039063 17.14175781 13.79078125 17.15851562 13.0390625 17.17578125 C6.09650618 17.2388954 6.09650618 17.2388954 3 15 C-0.36694489 10.06983069 -0.34422689 5.73711481 0 0 Z " fill="#A7A9AC" transform="translate(467,35)"/>
<path d="M0 0 C5 0 10 0 15 0 C15.79953138 3.28696233 16.09658936 4.71023192 15 8 C13.02 8 11.04 8 9 8 C7.81304447 11.56086658 7.64904582 14.97331024 7.4375 18.6875 C7.37272461 19.7403418 7.37272461 19.7403418 7.30664062 20.81445312 C7.2008264 22.54275206 7.09993419 24.2713511 7 26 C4.69 26 2.38 26 0 26 C0 17.42 0 8.84 0 0 Z " fill="#A7A9AC" transform="translate(422,145)"/>
<path d="M0 0 C2.31 0 4.62 0 7 0 C7 11.55 7 23.1 7 35 C4.69 35 2.38 35 0 35 C0 23.45 0 11.9 0 0 Z " fill="#A7A9AC" transform="translate(614,136)"/>
<path d="M0 0 C4.95 0 9.9 0 15 0 C16 4 16 4 15.0625 6.25 C14.711875 6.8275 14.36125 7.405 14 8 C12.35 8 10.7 8 9 8 C7.414131 11.171738 7.62133555 14.63513822 7.4375 18.125 C7.39431641 18.87910156 7.35113281 19.63320312 7.30664062 20.41015625 C7.2005168 22.27321888 7.09974999 24.13658524 7 26 C4.69 26 2.38 26 0 26 C0 17.42 0 8.84 0 0 Z " fill="#A7A9AC" transform="translate(570,145)"/>
<path d="M0 0 C1.98 0 3.96 0 6 0 C6.0871747 3.74985325 6.14045003 7.49944555 6.1875 11.25 C6.22520508 12.84521484 6.22520508 12.84521484 6.26367188 14.47265625 C6.27817383 16.00986328 6.27817383 16.00986328 6.29296875 17.578125 C6.31653442 18.99206543 6.31653442 18.99206543 6.34057617 20.43457031 C5.93597761 23.48225608 5.12489009 24.80580313 3 27 C0.24921116 27.91692961 -1.35948913 28.10886083 -4.1875 28.0625 C-6.0746875 28.0315625 -6.0746875 28.0315625 -8 28 C-8 26.02 -8 24.04 -8 22 C-6.865625 21.71125 -5.73125 21.4225 -4.5625 21.125 C-3.386875 20.75375 -2.21125 20.3825 -1 20 C0.1482685 17.703463 0.11561175 16.41686833 0.09765625 13.8671875 C0.09443359 13.06152344 0.09121094 12.25585938 0.08789062 11.42578125 C0.07951172 10.58402344 0.07113281 9.74226563 0.0625 8.875 C0.05798828 8.02550781 0.05347656 7.17601562 0.04882812 6.30078125 C0.03702874 4.20049091 0.01909306 2.1002367 0 0 Z " fill="#A7A9AC" transform="translate(502,24)"/>
<path d="M0 0 C2.31 0 4.62 0 7 0 C7 8.58 7 17.16 7 26 C4.69 26 2.38 26 0 26 C0 17.42 0 8.84 0 0 Z " fill="#A7A9AC" transform="translate(832,145)"/>
<path d="M0 0 C1.98 0 3.96 0 6 0 C6 9.24 6 18.48 6 28 C4.02 28 2.04 28 0 28 C0 18.76 0 9.52 0 0 Z " fill="#A7A9AC" transform="translate(452,24)"/>
<path d="M0 0 C1.65 0 3.3 0 5 0 C5 6.27 5 12.54 5 19 C3.35 19.33 1.7 19.66 0 20 C0 13.4 0 6.8 0 0 Z " fill="#A7A9AC" transform="translate(495,24)"/>
<path d="M0 0 C2.64 0 5.28 0 8 0 C8 2.97 8 5.94 8 9 C5.36 9 2.72 9 0 9 C0 6.03 0 3.06 0 0 Z " fill="#5C253D" transform="translate(866,112)"/>
<path d="M0 0 C2.64 0 5.28 0 8 0 C8 2.97 8 5.94 8 9 C5.36 9 2.72 9 0 9 C0 6.03 0 3.06 0 0 Z " fill="#5C253D" transform="translate(834,112)"/>
<path d="M0 0 C3.63 0 7.26 0 11 0 C11 1.98 11 3.96 11 6 C7.37 6 3.74 6 0 6 C0 4.02 0 2.04 0 0 Z " fill="#A7A9AC" transform="translate(474,29)"/>
<path d="M0 0 C3.3 0 6.6 0 10 0 C10 1.98 10 3.96 10 6 C6.7 6 3.4 6 0 6 C0 4.02 0 2.04 0 0 Z " fill="#A7A9AC" transform="translate(878,27)"/>
<path d="M0 0 C3.3 0 6.6 0 10 0 C10 1.98 10 3.96 10 6 C6.7 6 3.4 6 0 6 C0 4.02 0 2.04 0 0 Z " fill="#A7A9AC" transform="translate(814,24)"/>
<path d="M0 0 C2.31 0 4.62 0 7 0 C7 2.31 7 4.62 7 7 C4.69 7 2.38 7 0 7 C0 4.69 0 2.38 0 0 Z " fill="#A7A9AC" transform="translate(832,136)"/>
<path d="M0 0 C1.65 0 3.3 0 5 0 C5 1.98 5 3.96 5 6 C3.35 6 1.7 6 0 6 C0 4.02 0 2.04 0 0 Z " fill="#A7A9AC" transform="translate(778,54)"/>
<path d="M0 0 C1.65 0 3.3 0 5 0 C5 1.98 5 3.96 5 6 C3.35 6 1.7 6 0 6 C0 4.02 0 2.04 0 0 Z " fill="#A7A9AC" transform="translate(772,54)"/>
<path d="M0 0 C1.65 0 3.3 0 5 0 C5 1.98 5 3.96 5 6 C3.35 6 1.7 6 0 6 C0 4.02 0 2.04 0 0 Z " fill="#A7A9AC" transform="translate(708,54)"/>
<path d="M0 0 C1.65 0 3.3 0 5 0 C5 1.98 5 3.96 5 6 C3.35 6 1.7 6 0 6 C0 4.02 0 2.04 0 0 Z " fill="#A7A9AC" transform="translate(668,54)"/>
<path d="M0 0 C1.65 0 3.3 0 5 0 C5 1.98 5 3.96 5 6 C3.35 6 1.7 6 0 6 C0 4.02 0 2.04 0 0 Z " fill="#A7A9AC" transform="translate(662,54)"/>
<path d="M0 0 C1.65 0 3.3 0 5 0 C5 1.98 5 3.96 5 6 C3.35 6 1.7 6 0 6 C0 4.02 0 2.04 0 0 Z " fill="#A7A9AC" transform="translate(633,54)"/>
<path d="M0 0 C1.65 0 3.3 0 5 0 C5 1.98 5 3.96 5 6 C3.35 6 1.7 6 0 6 C0 4.02 0 2.04 0 0 Z " fill="#A7A9AC" transform="translate(627,54)"/>
<path d="M0 0 C1.65 0 3.3 0 5 0 C5 1.98 5 3.96 5 6 C3.35 6 1.7 6 0 6 C0 4.02 0 2.04 0 0 Z " fill="#A7A9AC" transform="translate(680,27)"/>
<path d="M0 0 C1.65 0 3.3 0 5 0 C5 1.98 5 3.96 5 6 C3.35 6 1.7 6 0 6 C0 4.02 0 2.04 0 0 Z " fill="#A7A9AC" transform="translate(674,27)"/>
<path d="M0 0 C1.65 0 3.3 0 5 0 C5 1.98 5 3.96 5 6 C3.35 6 1.7 6 0 6 C0 4.02 0 2.04 0 0 Z " fill="#A7A9AC" transform="translate(373,24)"/>
<path d="M0 0 C1.65 0 3.3 0 5 0 C5 1.98 5 3.96 5 6 C3.35 6 1.7 6 0 6 C0 4.02 0 2.04 0 0 Z " fill="#A7A9AC" transform="translate(367,24)"/>
<path d="M0 0 C1.65 0 3.3 0 5 0 C5 1.65 5 3.3 5 5 C3.35 5 1.7 5 0 5 C0 3.35 0 1.7 0 0 Z " fill="#A7A9AC" transform="translate(549,25)"/>
<path d="M0 0 C1.65 0 3.3 0 5 0 C5 1.65 5 3.3 5 5 C3.35 5 1.7 5 0 5 C0 3.35 0 1.7 0 0 Z " fill="#A7A9AC" transform="translate(543,25)"/>
<path d="M0 0 C1.65 0 3.3 0 5 0 C5 1.65 5 3.3 5 5 C3.35 5 1.7 5 0 5 C0 3.35 0 1.7 0 0 Z " fill="#A7A9AC" transform="translate(880,21)"/>
</svg>
